<svg id="Layer_1" data-name="Layer 1" xmlns="http://www.w3.org/2000/svg" viewBox="0 0 142.46 120"><defs><style>.cls-1{fill:#ccc;}.cls-2{fill:#666;}</style></defs><path class="cls-1" d="M21.76,7.6c9.49,6,18.54,11.59,27.48,17.44,1,.66,1.44,2.87,1.44,4.41q.16,36.42,0,72.84c0,1.66-.55,4.09-1.77,4.75-9.49,5.74-19.09,11.15-29.13,17a2.21,2.21,0,0,1-3.32-1.88V10.58a3.47,3.47,0,0,1,5.3-3" transform="translate(-16.46 -4.67)"/><path class="cls-1" d="M124.84,4.84c10.93,6.86,21.73,13.58,32.34,20.41,1.1.78,1.65,3.11,1.65,4.76q.19,36.09,0,72.16c0,1.68-.45,4.2-1.65,4.88-9.38,5.73-18.89,11.13-29.24,17.08a2.48,2.48,0,0,1-4-2.07V4.67" transform="translate(-16.46 -4.67)"/><path class="cls-2" d="M124,4.67V27.58a1.23,1.23,0,0,0-1.22-1.23H106.08a1.19,1.19,0,0,1-1.1-.65,1,1,0,0,1-.13-.45,1.61,1.61,0,0,1,.35-.87C111.05,18.1,117,11.8,123.29,5.07" transform="translate(-16.46 -4.67)"/><path class="cls-1" d="M70.75,4.84c10.93,6.86,21.73,13.58,32.34,20.41,1.1.78,1.65,3.11,1.65,4.76q.2,36.09,0,72.16c0,1.68-.45,4.2-1.65,4.88-9.38,5.73-18.89,11.13-29.24,17.08a2.48,2.48,0,0,1-4-2.07V4.67" transform="translate(-16.46 -4.67)"/><path class="cls-2" d="M69.87,4.67V27.58a1.23,1.23,0,0,0-1.22-1.23H52a1.19,1.19,0,0,1-1.1-.65,1,1,0,0,1-.13-.45,1.61,1.61,0,0,1,.35-.87C57,18.1,62.92,11.8,69.2,5.07" transform="translate(-16.46 -4.67)"/></svg>