<?xml version="1.0" encoding="utf-8"?>
<!-- Generator: Adobe Illustrator 24.3.0, SVG Export Plug-In . SVG Version: 6.00 Build 0)  -->
<svg version="1.1" id="Layer_1" xmlns="http://www.w3.org/2000/svg" xmlns:xlink="http://www.w3.org/1999/xlink" x="0px" y="0px"
	 viewBox="0 0 138.9 114" style="enable-background:new 0 0 138.9 114;" xml:space="preserve">
<style type="text/css">
	.st0{fill:#808285;}
</style>
<path class="st0" d="M6.3,7.2c0-2.5,2.7-4,4.8-2.7C19.7,9.9,27.9,15,36,20.3c0.9,0.6,1.3,2.6,1.3,4c0.1,22,0.1,44,0,66
	c0,1.5-0.5,3.7-1.6,4.3c-8.6,5.2-17.3,10.1-26.4,15.4c-1.3,0.8-3-0.2-3-1.7L6.3,7.2z"/>
<path class="st0" d="M54.7,108.2l0-85.6c0-0.6-0.5-1.1-1.1-1.1H38.5c-0.4,0-0.8-0.2-1-0.6l0,0c-0.2-0.4-0.1-0.8,0.2-1.2
	c5.3-5.7,10.7-11.4,16.4-17.5C54.4,2,55,1.9,55.4,2.2c9.9,6.2,19.7,12.3,29.3,18.5c1,0.7,1.5,2.8,1.5,4.3c0.1,21.8,0.1,43.6,0,65.4
	c0,1.5-0.4,3.8-1.5,4.4c-8.5,5.2-17.1,10.1-26.5,15.5C56.7,111.3,54.7,110.1,54.7,108.2z"/>
<path d="M54.7,22.7c0-0.6-0.5-1.1-1.1-1.1H38.4c-0.4,0-0.8-0.2-1-0.6v0c-0.2-0.4-0.1-0.9,0.2-1.2c5.2-5.5,11.1-11.7,16.6-17.6
	c0.2-0.2,0.9-0.4,0.9-0.1L54.7,22.7z"/>
<path class="st0" d="M103.7,108.2l0-85.6c0-0.6-0.5-1.1-1.1-1.1H87.5c-0.4,0-0.8-0.2-1-0.6l0,0c-0.2-0.4-0.1-0.8,0.2-1.2
	c5.3-5.7,10.7-11.4,16.4-17.5c0.3-0.4,0.9-0.5,1.4-0.2c9.9,6.2,19.7,12.3,29.3,18.5c1,0.7,1.5,2.8,1.5,4.3c0.1,21.8,0.1,43.6,0,65.4
	c0,1.5-0.4,3.8-1.5,4.4c-8.5,5.2-17.1,10.1-26.5,15.5C105.8,111.3,103.7,110.1,103.7,108.2z"/>
<path d="M103.7,22.7c0-0.6-0.5-1.1-1.1-1.1H87.4c-0.4,0-0.8-0.2-1-0.6v0c-0.2-0.4-0.1-0.9,0.2-1.2c5.2-5.5,11.1-11.7,16.6-17.6
	c0.2-0.2,0.9-0.4,0.9-0.1L103.7,22.7z"/>
</svg>
